<svg width="64" height="64" viewBox="0 0 64 64" fill="none" xmlns="http://www.w3.org/2000/svg">
  <path d="M32 52C31.4 52 30.8 51.8 30.3 51.3L14.9 37C5.8 28.4 5.2 14.8 13.5 8.7C19.2 4.5 27.3 5.4 32 10.7C36.7 5.4 44.8 4.5 50.5 8.7C58.8 14.8 58.2 28.4 49.1 37L33.7 51.3C33.2 51.8 32.6 52 32 52Z" fill="#FFF1E8"/>
  <path d="M32 42.8L18.4 30.1C13.2 25.2 13.6 17 19 13.6C23.3 10.9 29 11.6 32 15.5C35 11.6 40.7 10.9 45 13.6C50.4 17 50.8 25.2 45.6 30.1L32 42.8Z" stroke="#FF5A7A" stroke-width="4.5" stroke-linejoin="round"/>
</svg>
